<?xml version="1.0" encoding="utf-8"?>
<!-- Generator: Adobe Illustrator 19.1.0, SVG Export Plug-In . SVG Version: 6.00 Build 0)  -->
<svg version="1.1" id="Layer_1" xmlns="http://www.w3.org/2000/svg" xmlns:xlink="http://www.w3.org/1999/xlink" x="0px" y="0px"
	 viewBox="0 0 595.3 841.9" style="enable-background:new 0 0 595.3 841.9;" xml:space="preserve">
<style type="text/css">
	.st0{opacity:0.1;stroke:#FFFFFF;stroke-miterlimit:10;}
	.st1{opacity:0.4;stroke:#FFFFFF;stroke-miterlimit:10;}
	.st2{opacity:0.2;stroke:#FFFFFF;stroke-miterlimit:10;}
</style>
<polygon class="st0" points="84.1,172.7 22.1,122.4 34.8,43.5 109.3,15.1 171.3,65.4 158.7,144.2 "/>
<polygon class="st0" points="212.3,386.2 150.3,335.8 163,257 237.5,228.5 299.5,278.9 286.9,357.7 "/>
<polygon class="st0" points="328.6,253.9 268,230.6 257.8,166.6 308.2,125.7 368.8,149 379,213 "/>
<polygon class="st1" points="220.9,133.6 187.9,85.1 213.4,32.3 271.9,27.9 304.9,76.4 279.4,129.2 "/>
<polygon class="st1" points="55.1,306.7 22.1,258.2 47.6,205.4 106.1,201 139.1,249.5 113.6,302.3 "/>
<polygon class="st1" points="397.7,518.9 364.7,470.5 390.2,417.6 448.7,413.2 481.7,461.7 456.2,514.6 "/>
<polygon class="st2" points="325.6,102.1 326.3,58.2 364.6,36.9 402.3,59.4 401.6,103.2 363.3,124.6 "/>
<polygon class="st2" points="189.9,221.9 152.3,202.5 150.3,160.2 186,137.4 223.5,156.8 225.5,199.1 "/>
<polygon class="st0" points="376.6,393.1 314.7,342.7 327.3,263.9 401.9,235.4 463.8,285.8 451.2,364.6 "/>
<polygon class="st1" points="435.3,239.3 402.3,190.8 427.8,137.9 486.3,133.6 519.3,182 493.8,234.9 "/>
<polygon class="st1" points="524.6,156.9 504.4,127.3 520,95 555.7,92.3 575.9,121.9 560.4,154.2 "/>
<polygon class="st1" points="29.3,506.1 9.1,476.5 24.7,444.2 60.4,441.6 80.6,471.2 65.1,503.4 "/>
<polygon class="st1" points="299.1,830 278.9,800.4 294.5,768.1 330.2,765.5 350.4,795.1 334.8,827.4 "/>
<polygon class="st1" points="506.8,812.9 486.6,783.3 502.1,751 537.9,748.3 558,778 542.5,810.2 "/>
<polygon class="st1" points="258.5,491.8 225.5,443.4 251,390.5 309.5,386.2 342.5,434.6 317,487.5 "/>
<polygon class="st2" points="465.8,112.4 428.2,93 426.2,50.7 461.9,27.9 499.5,47.3 501.4,89.6 "/>
<polygon class="st0" points="105,663.8 43,613.4 55.6,534.6 130.2,506.1 192.2,556.5 179.5,635.3 "/>
<polygon class="st0" points="349.5,744.9 288.9,721.7 278.7,657.6 329.1,616.8 389.7,640 399.9,704.1 "/>
<polygon class="st1" points="241.8,624.6 208.8,576.1 234.3,523.3 292.8,518.9 325.8,567.4 300.3,620.2 "/>
<polygon class="st1" points="76,797.8 43,749.3 68.5,696.4 127,692.1 160,740.5 134.5,793.4 "/>
<polygon class="st2" points="346.5,593.1 347.2,549.3 385.5,527.9 423.2,550.4 422.5,594.3 384.2,615.6 "/>
<polygon class="st2" points="463.1,414.4 463.7,370.6 502.1,349.2 539.7,371.7 539.1,415.6 500.8,436.9 "/>
<polygon class="st2" points="128.1,483.7 94.6,441 114.9,390.7 168.6,383.1 202,425.7 181.8,476.1 "/>
<polygon class="st2" points="205.3,831 171.8,788.3 192,737.9 245.7,730.3 279.2,773 259,823.3 "/>
<polygon class="st2" points="397.4,831 364,788.3 384.2,737.9 437.9,730.3 471.4,773 451.1,823.3 "/>
<polygon class="st2" points="22.1,398.4 22.8,354.6 61.1,333.2 98.8,355.7 98.1,399.6 59.8,420.9 "/>
<polygon class="st2" points="210.8,713 173.2,693.5 171.2,651.2 206.9,628.4 244.4,647.9 246.4,690.1 "/>
<polygon class="st2" points="521.2,338.4 483.6,319 481.7,276.7 517.3,253.9 554.9,273.3 556.9,315.6 "/>
<polygon class="st1" points="456.2,730.3 423.2,681.8 448.7,629 507.1,624.6 540.2,673.1 514.7,725.9 "/>
<polygon class="st1" points="279.4,982.9 246.4,934.4 271.9,881.6 330.4,877.2 363.4,925.7 337.9,978.5 "/>
<polygon class="st2" points="486.7,603.5 449.1,584 447.1,541.8 482.8,518.9 520.4,538.4 522.3,580.7 "/>
<polygon class="st2" points="541.7,534.1 504.1,514.7 502.1,472.4 537.8,449.6 575.4,469 577.3,511.3 "/>
</svg>
