<?xml version="1.0" encoding="utf-8"?>
<!-- Generator: Adobe Illustrator 19.1.0, SVG Export Plug-In . SVG Version: 6.00 Build 0)  -->
<svg version="1.1" id="Layer_1" xmlns="http://www.w3.org/2000/svg" xmlns:xlink="http://www.w3.org/1999/xlink" x="0px" y="0px"
	 viewBox="0 0 95.3 119.7" style="enable-background:new 0 0 95.3 119.7;" xml:space="preserve">
<style type="text/css">
	.st0{fill-rule:evenodd;clip-rule:evenodd;fill:#231F20;}
	.st1{clip-path:url(#SVGID_2_);fill-rule:evenodd;clip-rule:evenodd;fill:#ACAAAD;}
	.st2{clip-path:url(#SVGID_2_);fill-rule:evenodd;clip-rule:evenodd;fill:#231F20;}
	.st3{fill:#231F20;}
	.st4{clip-path:url(#SVGID_4_);fill-rule:evenodd;clip-rule:evenodd;fill:url(#SVGID_5_);}
	.st5{clip-path:url(#SVGID_7_);fill-rule:evenodd;clip-rule:evenodd;fill:#FFFFFF;}
	.st6{fill:#FFFFFF;}
	.st7{fill-rule:evenodd;clip-rule:evenodd;fill:#FFFFFF;}
</style>
<g>
	<rect x="53.6" y="77.5" class="st0" width="14.3" height="35.7"/>
	<path class="st0" d="M49.7,116.8c0-5.1,4.8-9.1,11-9.1c6.2,0,11.2,4,11.2,9.1H49.7z"/>
	<rect x="30.9" y="77.5" class="st0" width="14.3" height="35.7"/>
	<path class="st0" d="M26.9,116.8c0-5.1,4.8-9.1,11-9.1c6.2,0,11.2,4,11.2,9.1H26.9z"/>
	<g>
		<defs>
			<path id="SVGID_1_" d="M23.9,82.9c0-12.5,5.9-26.3,25.2-26.8C69.9,55.6,75,70.8,75,83.4s-12.6,22.7-25.1,22.7
				C37.3,106.1,23.9,95.4,23.9,82.9z"/>
		</defs>
		<use xlink:href="#SVGID_1_"  style="overflow:visible;fill-rule:evenodd;clip-rule:evenodd;fill:#D9D6D9;"/>
		<clipPath id="SVGID_2_">
			<use xlink:href="#SVGID_1_"  style="overflow:visible;"/>
		</clipPath>
		<path class="st1" d="M49.6,113.3V63.2C12,51.9,18.5,104.1,18.6,109.5c0.3,10.4,10.9,18.4,18.4,17.3
			C44.8,125.5,49.6,113.3,49.6,113.3z"/>
		<circle class="st2" cx="50" cy="49.1" r="40.2"/>
	</g>
	<path class="st3" d="M37.4,84.6c3.5,0.6,6.6,3.6,7,7.6c0.5,4.6-3.4,7.9-7.4,6.8c-5.6-1.8-9.9-5.7-12.9-11.8
		c-1.9-3.7-1.3-9.3,0.3-9.8C27.6,82.1,31.9,83.6,37.4,84.6z"/>
	<path class="st3" d="M61.7,84.6c-3.5,0.6-6.6,3.6-7,7.6c-0.5,4.6,3.4,7.9,7.4,6.8c5.6-1.8,9.9-5.7,12.9-11.8
		c1.9-3.7,1.3-9.3-0.3-9.8C71.6,82.1,67.2,83.6,61.7,84.6z"/>
	<g>
		<circle class="st0" cx="79.3" cy="16.6" r="13.6"/>
		<circle class="st0" cx="16.7" cy="16.6" r="13.6"/>
		<g>
			<defs>
				<path id="SVGID_3_" d="M8.7,42.5c0-22.2,18-40.2,40.2-40.2c22.2,0,40.2,18,40.2,40.2c10.6,28.3-18,40.2-40.2,40.2
					C26.7,82.7-1.1,69.2,8.7,42.5z"/>
			</defs>
			<use xlink:href="#SVGID_3_"  style="overflow:visible;fill-rule:evenodd;clip-rule:evenodd;fill:#D9D6D9;"/>
			<clipPath id="SVGID_4_">
				<use xlink:href="#SVGID_3_"  style="overflow:visible;"/>
			</clipPath>
			
				<linearGradient id="SVGID_5_" gradientUnits="userSpaceOnUse" x1="1707.5581" y1="-1576.3184" x2="1729.8341" y2="-1503.457" gradientTransform="matrix(1 0 0 1 -1688.3311 1584)">
				<stop  offset="0" style="stop-color:#7D7F81"/>
				<stop  offset="0.8281" style="stop-color:#D9D6D9"/>
				<stop  offset="1" style="stop-color:#D9D6D9"/>
			</linearGradient>
			<path class="st4" d="M49.7,70.3L48.9,0.8C0.4,2.5,2.9,51.5,3.1,57.7c0.4,11.9,23.2,26.1,31.7,24.7C43.8,81.1,49.7,70.3,49.7,70.3
				z"/>
		</g>
		<g>
			<defs>
				<path id="SVGID_6_" d="M38.3,59c0-7.6,21.7-8.4,21.7,0c0,3.8-10.8,6.8-10.8,6.8S38.3,62.8,38.3,59z"/>
			</defs>
			<use xlink:href="#SVGID_6_"  style="overflow:visible;fill-rule:evenodd;clip-rule:evenodd;fill:#231F20;"/>
			<clipPath id="SVGID_7_">
				<use xlink:href="#SVGID_6_"  style="overflow:visible;"/>
			</clipPath>
			
				<ellipse transform="matrix(-0.9848 -0.1736 0.1736 -0.9848 96.7539 121.3207)" class="st5" cx="53.7" cy="56.4" rx="2.9" ry="1.2"/>
		</g>
		<g>
			<g>
				<path class="st0" d="M14.6,45c-0.7-7.2,4.2-13.9,10.8-16.6c6.6-2.7,19.7,1.8,15.8,9.1c-3.6,7.3-7.3,16.2-14.2,18
					C20.1,57.4,15.2,50.7,14.6,45z"/>
				<path class="st0" d="M82.7,45c0.7-7.2-4.2-13.9-10.8-16.6c-6.6-2.7-19.7,1.8-15.8,9.1c3.6,7.3,7.3,16.2,14.2,18
					S82.1,50.7,82.7,45z"/>
				<circle class="st6" cx="69.7" cy="40.4" r="5.5"/>
				<circle class="st0" cx="69.6" cy="40.4" r="3.8"/>
			</g>
			<circle class="st7" cx="67.1" cy="39.5" r="1.6"/>
			<circle class="st7" cx="70" cy="41.1" r="0.6"/>
			<circle class="st6" cx="26.9" cy="40.4" r="5.5"/>
			<circle class="st0" cx="26.8" cy="40.4" r="3.8"/>
			<circle class="st7" cx="24.3" cy="39.5" r="1.6"/>
			<circle class="st7" cx="27.1" cy="41.1" r="0.6"/>
		</g>
	</g>
</g>
</svg>
